# xmcd
#
# Track frame offsets:
#	150
#	11615
#	28175
#	43902
#	56620
#	74682
#	89212
#	98825
#	112337
#	124612
#	139160
#	150447
#	164255
#	179537
#	201825
#	213172
#	226307
#	236627
#
# Disc length: 3340
#
# Revision: 3
# Processed by: cddbd v1.5.1PL0 Copyright (c) Steve Scherf et al.
# Submitted via: DiscPlay 4.0.3
# Normalized: r1:TDELIM( - ),TSWAP
#
DISCID=090d0a12
DTITLE=Various Artist - Bluesmania - CD1
DYEAR=1900
DGENRE=
TTITLE0=John Lee Hooker - Boom Boom
TTITLE1=Muddy Waters - Got My Mojo Working
TTITLE2=Bessie Smith - Down Hearted Blues
TTITLE3=T. Bone Walker - Inspiration Blues
TTITLE4=Lightnin' Hopkins - Letter To My Back Door Friend
TTITLE5=Lowell Fulson - Reconsider Baby
TTITLE6=Memphis Slim - Rockin' The House
TTITLE7=Magic Sam - All Your Love
TTITLE8=Jimmy Reed - Honest I Do (Rollling Stone)
TTITLE9=Otis Rush - So Many Roads, So Many Trains
TTITLE10=J.B. Lenoir - Mama Talk To Your Daughter
TTITLE11=Clarence Gatemoutgh Brown - Long Way Home
TTITLE12=Jimmy Page and Sonny Boy Williamson - It's A Bloody Life
TTITLE13=Jimmy Page and Sonny Boy Williamson - It's Raining In My Life
TTITLE14=Frank Frost - Jelly Roll King
TTITLE15=Frenton Robinson - The Getaway
TTITLE16=Guitar Junior - The Crawl
TTITLE17=Eddie Boyd - Rattin' And Runnin' Round
EXTD=
EXTT0=
EXTT1=
EXTT2=
EXTT3=
EXTT4=
EXTT5=
EXTT6=
EXTT7=
EXTT8=
EXTT9=
EXTT10=
EXTT11=
EXTT12=
EXTT13=
EXTT14=
EXTT15=
EXTT16=
EXTT17=
PLAYORDER=
